<svg xmlns="http://www.w3.org/2000/svg" xmlns:xlink="http://www.w3.org/1999/xlink" width="500" zoomAndPan="magnify" viewBox="0 0 375 374.999991" height="500" preserveAspectRatio="xMidYMid meet" version="1.0"><defs><clipPath id="1b4751d5b6"><path d="M 181 188 L 335 188 L 335 273.832031 L 181 273.832031 Z M 181 188 " clip-rule="nonzero"/></clipPath><clipPath id="6734fbb3c8"><path d="M 9.082031 101.332031 L 366 101.332031 L 366 241 L 9.082031 241 Z M 9.082031 101.332031 " clip-rule="nonzero"/></clipPath></defs><path fill="#233dff" d="M 71.136719 254.351562 C 169.453125 276.308594 239.125 146.777344 326.5625 181.027344 C 295.945312 174.3125 255.65625 191.769531 205.699219 233.402344 C 152.25 272.078125 107.394531 279.058594 71.136719 254.351562 Z M 71.136719 254.351562 " fill-opacity="1" fill-rule="evenodd"/><g clip-path="url(#1b4751d5b6)"><path fill="#233dff" d="M 334.671875 197.816406 C 282.40625 158.152344 233.410156 255.964844 181.597656 268.144531 C 233.53125 299.628906 273.976562 185.417969 334.671875 197.816406 Z M 334.671875 197.816406 " fill-opacity="1" fill-rule="evenodd"/></g><g clip-path="url(#6734fbb3c8)"><path fill="#cae8ff" d="M 365.824219 188.007812 C 268.515625 57.265625 114.222656 241.3125 70.425781 181.273438 C 34.660156 132.242188 124.492188 104.023438 152.675781 151.308594 C 104.644531 45.902344 -37.503906 127.339844 24.617188 210.941406 C 63.546875 263.339844 129.617188 235.800781 184.0625 200.894531 C 237.882812 166.386719 302.53125 136.648438 365.824219 188.003906 Z M 365.824219 188.007812 " fill-opacity="1" fill-rule="evenodd"/></g></svg>