<svg xmlns="http://www.w3.org/2000/svg" xmlns:xlink="http://www.w3.org/1999/xlink" width="500" zoomAndPan="magnify" viewBox="0 0 375 374.999991" height="500" preserveAspectRatio="xMidYMid meet" version="1.0"><defs><g/><clipPath id="6f8bba013c"><path d="M 182 128 L 306 128 L 306 196.882812 L 182 196.882812 Z M 182 128 " clip-rule="nonzero"/></clipPath><clipPath id="50d7b5933e"><path d="M 44.230469 58.207031 L 330.90625 58.207031 L 330.90625 170 L 44.230469 170 Z M 44.230469 58.207031 " clip-rule="nonzero"/></clipPath></defs><path fill="#233dff" d="M 94.050781 181.089844 C 173.007812 198.722656 228.957031 94.699219 299.175781 122.203125 C 274.585938 116.8125 242.230469 130.832031 202.113281 164.265625 C 159.191406 195.324219 123.167969 200.929688 94.050781 181.089844 Z M 94.050781 181.089844 " fill-opacity="1" fill-rule="evenodd"/><g clip-path="url(#6f8bba013c)"><path fill="#233dff" d="M 305.6875 135.6875 C 263.714844 103.835938 224.367188 182.382812 182.761719 192.164062 C 224.464844 217.449219 256.945312 125.730469 305.6875 135.6875 Z M 305.6875 135.6875 " fill-opacity="1" fill-rule="evenodd"/></g><g clip-path="url(#50d7b5933e)"><path fill="#cae8ff" d="M 330.703125 127.808594 C 252.558594 22.816406 128.652344 170.621094 93.480469 122.402344 C 64.757812 83.027344 136.902344 60.367188 159.53125 98.339844 C 120.960938 13.691406 6.804688 79.089844 56.691406 146.230469 C 87.957031 188.308594 141.015625 166.191406 184.738281 138.160156 C 227.960938 110.449219 279.875 86.566406 330.703125 127.808594 Z M 330.703125 127.808594 " fill-opacity="1" fill-rule="evenodd"/></g><g fill="#cae8ff" fill-opacity="1"><g transform="translate(21.482012, 266.332478)"><g><path d="M 25.050781 0.65625 C 40.363281 0.65625 47.414062 -10.558594 47.414062 -23.183594 C 47.414062 -35.808594 40.363281 -47.019531 25.050781 -47.019531 C 9.738281 -47.019531 2.6875 -35.808594 2.6875 -23.183594 C 2.6875 -10.558594 9.738281 0.65625 25.050781 0.65625 Z M 25.050781 -6.722656 C 15.117188 -6.722656 11.476562 -14.425781 11.476562 -23.183594 C 11.476562 -31.90625 15.117188 -39.609375 25.050781 -39.609375 C 34.988281 -39.609375 38.625 -31.90625 38.625 -23.183594 C 38.625 -14.425781 34.988281 -6.722656 25.050781 -6.722656 Z M 25.050781 -6.722656 "/></g></g></g><g fill="#cae8ff" fill-opacity="1"><g transform="translate(71.583088, 266.332478)"><g><path d="M 17.738281 0.65625 C 24.230469 0.65625 29.347656 -2.949219 31.511719 -9.050781 L 24.230469 -11.804688 C 23.378906 -8.722656 20.886719 -6.589844 17.675781 -6.589844 C 12.097656 -6.589844 10 -11.34375 10 -16.328125 C 10 -21.214844 12.164062 -26.199219 17.675781 -26.199219 C 20.953125 -26.199219 23.378906 -23.96875 24.230469 -20.820312 L 31.839844 -23.773438 C 29.347656 -30.296875 24.167969 -33.445312 17.675781 -33.445312 C 6.984375 -33.445312 1.867188 -24.921875 1.867188 -16.328125 C 1.867188 -7.640625 7.050781 0.65625 17.738281 0.65625 Z M 17.738281 0.65625 "/></g></g></g><g fill="#cae8ff" fill-opacity="1"><g transform="translate(104.502904, 266.332478)"><g><path d="M 18.394531 0.65625 C 23.902344 0.65625 28.265625 -1.277344 31.839844 -5.246094 L 26.332031 -10.066406 C 24.035156 -7.507812 21.410156 -6.589844 18.460938 -6.589844 C 13.3125 -6.589844 10.953125 -9.476562 10.261719 -13.773438 L 32.757812 -13.773438 C 32.921875 -14.230469 33.050781 -15.574219 33.050781 -16.917969 C 33.050781 -24.230469 29.347656 -33.445312 17.871094 -33.445312 C 6.789062 -33.445312 1.804688 -24.789062 1.804688 -16.265625 C 1.804688 -7.445312 7.117188 0.65625 18.394531 0.65625 Z M 10.261719 -19.542969 C 11.015625 -23.640625 13.082031 -26.722656 17.804688 -26.722656 C 21.96875 -26.722656 24.660156 -24.230469 25.183594 -19.542969 Z M 10.261719 -19.542969 "/></g></g></g><g fill="#cae8ff" fill-opacity="1"><g transform="translate(139.488414, 266.332478)"><g><path d="M 13.707031 0.65625 C 17.609375 0.65625 21.085938 -0.589844 23.902344 -4.6875 L 24.429688 0 L 31.019531 0 L 31.019531 -19.871094 C 31.019531 -27.871094 25.773438 -33.445312 16.855469 -33.445312 C 10.394531 -33.445312 6.230469 -30.558594 3.082031 -26.265625 L 9.214844 -21.839844 C 10.625 -24.230469 13.148438 -26.460938 16.917969 -26.460938 C 21.148438 -26.460938 23.378906 -23.707031 23.378906 -19.542969 L 14.855469 -19.542969 C 7.507812 -19.542969 1.804688 -17.183594 1.804688 -10.066406 C 1.804688 -3.214844 6.984375 0.65625 13.707031 0.65625 Z M 14.855469 -6.097656 C 11.738281 -6.097656 10 -7.640625 10 -9.804688 C 10 -11.871094 11.671875 -13.773438 15.3125 -13.773438 L 23.378906 -13.773438 C 23.25 -9.671875 19.410156 -6.097656 14.855469 -6.097656 Z M 14.855469 -6.097656 "/></g></g></g><g fill="#cae8ff" fill-opacity="1"><g transform="translate(174.277192, 266.332478)"><g><path d="M 4.753906 0 L 12.691406 0 L 12.691406 -17.9375 C 12.691406 -23.640625 15.574219 -26.066406 20.066406 -26.066406 C 24.167969 -26.066406 26.332031 -22.953125 26.332031 -18.65625 L 26.332031 0 L 34.234375 0 L 34.234375 -19.675781 C 34.234375 -26.527344 30.953125 -33.445312 22.363281 -33.445312 C 19.148438 -33.445312 15.3125 -32.167969 12.691406 -28.953125 L 12.691406 -32.757812 L 4.753906 -32.757812 Z M 4.753906 0 "/></g></g></g><g fill="#cae8ff" fill-opacity="1"><g transform="translate(212.344837, 266.332478)"><g><path d="M 5.96875 0 L 13.96875 0 L 13.96875 -32.496094 L 33.378906 0 L 41.710938 0 L 41.710938 -46.332031 L 33.707031 -46.332031 L 33.707031 -13.902344 L 14.230469 -46.332031 L 5.96875 -46.332031 Z M 5.96875 0 "/></g></g></g><g fill="#cae8ff" fill-opacity="1"><g transform="translate(260.019552, 266.332478)"><g><path d="M 18.394531 0.65625 C 23.902344 0.65625 28.265625 -1.277344 31.839844 -5.246094 L 26.332031 -10.066406 C 24.035156 -7.507812 21.410156 -6.589844 18.460938 -6.589844 C 13.3125 -6.589844 10.953125 -9.476562 10.261719 -13.773438 L 32.757812 -13.773438 C 32.921875 -14.230469 33.050781 -15.574219 33.050781 -16.917969 C 33.050781 -24.230469 29.347656 -33.445312 17.871094 -33.445312 C 6.789062 -33.445312 1.804688 -24.789062 1.804688 -16.265625 C 1.804688 -7.445312 7.117188 0.65625 18.394531 0.65625 Z M 10.261719 -19.542969 C 11.015625 -23.640625 13.082031 -26.722656 17.804688 -26.722656 C 21.96875 -26.722656 24.660156 -24.230469 25.183594 -19.542969 Z M 10.261719 -19.542969 "/></g></g></g><g fill="#cae8ff" fill-opacity="1"><g transform="translate(295.005077, 266.332478)"><g><path d="M 0.328125 0 L 10.066406 0 L 16.855469 -11.015625 L 23.640625 0 L 33.445312 0 L 22.167969 -16.527344 L 33.445312 -32.757812 L 23.640625 -32.757812 L 16.855469 -21.96875 L 10.066406 -32.757812 L 0.328125 -32.757812 L 11.542969 -16.527344 Z M 0.328125 0 "/></g></g></g><g fill="#cae8ff" fill-opacity="1"><g transform="translate(328.777383, 266.332478)"><g><path d="M 16.394531 0.65625 C 18.65625 0.65625 21.085938 0.132812 22.296875 -0.328125 L 22.296875 -7.574219 C 21.214844 -7.050781 19.410156 -6.394531 17.738281 -6.394531 C 15.640625 -6.394531 14.035156 -7.3125 14.035156 -10.460938 L 14.035156 -26.066406 L 22.296875 -26.066406 L 22.296875 -32.757812 L 14.035156 -32.757812 L 14.035156 -46.59375 L 6.230469 -40.890625 L 6.230469 -32.757812 L 0.820312 -32.757812 L 0.820312 -26.066406 L 6.097656 -26.066406 L 6.097656 -9.050781 C 6.097656 -3.082031 9.933594 0.65625 16.394531 0.65625 Z M 16.394531 0.65625 "/></g></g></g><g fill="#233dff" fill-opacity="1"><g transform="translate(95.602918, 308.947682)"><g><path d="M 9.875 0.257812 C 13.5 0.257812 16.402344 -1.585938 17.84375 -4.988281 L 14.816406 -6.226562 C 13.835938 -3.777344 12.222656 -2.847656 9.875 -2.847656 C 5.96875 -2.847656 4.304688 -5.621094 4.304688 -9.246094 C 4.304688 -12.625 5.96875 -15.394531 9.824219 -15.394531 C 12.199219 -15.394531 14.082031 -14.46875 14.765625 -12.070312 L 17.820312 -13.28125 C 16.351562 -16.683594 13.460938 -18.515625 9.851562 -18.515625 C 3.855469 -18.515625 1.058594 -14.105469 1.058594 -9.117188 C 1.058594 -4.113281 3.882812 0.257812 9.875 0.257812 Z M 9.875 0.257812 "/></g></g></g><g fill="#233dff" fill-opacity="1"><g transform="translate(116.177388, 308.947682)"><g><path d="M 9.851562 0.257812 C 15.871094 0.257812 18.644531 -4.152344 18.644531 -9.117188 C 18.644531 -14.082031 15.871094 -18.488281 9.851562 -18.488281 C 3.828125 -18.488281 1.058594 -14.082031 1.058594 -9.117188 C 1.058594 -4.152344 3.828125 0.257812 9.851562 0.257812 Z M 9.851562 -2.644531 C 5.945312 -2.644531 4.511719 -5.671875 4.511719 -9.117188 C 4.511719 -12.546875 5.945312 -15.574219 9.851562 -15.574219 C 13.757812 -15.574219 15.1875 -12.546875 15.1875 -9.117188 C 15.1875 -5.671875 13.757812 -2.644531 9.851562 -2.644531 Z M 9.851562 -2.644531 "/></g></g></g><g fill="#233dff" fill-opacity="1"><g transform="translate(137.989485, 308.947682)"><g><path d="M 2.347656 0 L 5.492188 0 L 5.492188 -12.777344 L 13.125 0 L 16.402344 0 L 16.402344 -18.21875 L 13.253906 -18.21875 L 13.253906 -5.46875 L 5.597656 -18.21875 L 2.347656 -18.21875 Z M 2.347656 0 "/></g></g></g><g fill="#233dff" fill-opacity="1"><g transform="translate(158.847577, 308.947682)"><g><path d="M 7.554688 0.207031 C 11.039062 0.207031 13.886719 -1.871094 13.886719 -5.3125 C 13.886719 -11.359375 5.066406 -10.199219 5.066406 -13.628906 C 5.066406 -14.789062 6.074219 -15.574219 7.363281 -15.574219 C 8.585938 -15.574219 9.671875 -14.867188 10.300781 -13.628906 L 13.023438 -15.292969 C 11.773438 -17.511719 9.722656 -18.488281 7.480469 -18.488281 C 4.410156 -18.488281 1.792969 -16.683594 1.792969 -13.460938 C 1.792969 -7.53125 10.613281 -8.792969 10.613281 -5.015625 C 10.613281 -3.726562 9.554688 -2.695312 7.609375 -2.695312 C 5.671875 -2.695312 4.0625 -3.699219 3.828125 -5.96875 L 0.582031 -5.144531 C 1.160156 -1.558594 4.332031 0.207031 7.554688 0.207031 Z M 7.554688 0.207031 "/></g></g></g><g fill="#233dff" fill-opacity="1"><g transform="translate(175.61892, 308.947682)"><g><path d="M 8.898438 0.257812 C 13.785156 0.257812 15.871094 -2.644531 15.871094 -7.234375 L 15.871094 -18.21875 L 12.597656 -18.21875 L 12.597656 -7.480469 C 12.597656 -4.539062 11.835938 -2.902344 8.898438 -2.902344 C 5.96875 -2.902344 5.195312 -4.539062 5.195312 -7.480469 L 5.195312 -18.21875 L 1.933594 -18.21875 L 1.933594 -7.105469 C 1.933594 -2.644531 4.011719 0.257812 8.898438 0.257812 Z M 8.898438 0.257812 "/></g></g></g><g fill="#233dff" fill-opacity="1"><g transform="translate(195.523013, 308.947682)"><g><path d="M 2.347656 0 L 13.410156 0 L 13.410156 -3.09375 L 5.621094 -3.09375 L 5.621094 -18.21875 L 2.347656 -18.21875 Z M 2.347656 0 "/></g></g></g><g fill="#233dff" fill-opacity="1"><g transform="translate(211.340356, 308.947682)"><g><path d="M 5.96875 0 L 9.246094 0 L 9.246094 -15.292969 L 14.945312 -15.292969 L 14.945312 -18.21875 L 0.257812 -18.21875 L 0.257812 -15.292969 L 5.96875 -15.292969 Z M 5.96875 0 "/></g></g></g><g fill="#233dff" fill-opacity="1"><g transform="translate(228.666057, 308.947682)"><g><path d="M 2.347656 0 L 5.621094 0 L 5.621094 -18.21875 L 2.347656 -18.21875 Z M 2.347656 0 "/></g></g></g><g fill="#233dff" fill-opacity="1"><g transform="translate(238.746481, 308.947682)"><g><path d="M 2.347656 0 L 5.492188 0 L 5.492188 -12.777344 L 13.125 0 L 16.402344 0 L 16.402344 -18.21875 L 13.253906 -18.21875 L 13.253906 -5.46875 L 5.597656 -18.21875 L 2.347656 -18.21875 Z M 2.347656 0 "/></g></g></g><g fill="#233dff" fill-opacity="1"><g transform="translate(259.604578, 308.947682)"><g><path d="M 9.875 0.257812 C 12.300781 0.257812 14.285156 -0.851562 15.265625 -2.566406 L 15.550781 0 L 18.140625 0 L 18.140625 -9.851562 L 10.832031 -9.851562 L 10.832031 -7.207031 L 14.96875 -7.207031 C 14.609375 -4.4375 12.496094 -2.667969 9.875 -2.667969 C 5.96875 -2.667969 4.304688 -5.621094 4.304688 -9.246094 C 4.304688 -12.625 5.96875 -15.652344 9.824219 -15.652344 C 12.144531 -15.652344 14.054688 -14.542969 14.894531 -12.070312 L 17.792969 -13.28125 C 16.324219 -16.683594 13.4375 -18.515625 9.851562 -18.515625 C 3.828125 -18.515625 1.058594 -14.105469 1.058594 -9.117188 C 1.058594 -4.113281 3.882812 0.257812 9.875 0.257812 Z M 9.875 0.257812 "/></g></g></g></svg>